<svg id="Layer_1" data-name="Layer 1" xmlns="http://www.w3.org/2000/svg" xmlns:xlink="http://www.w3.org/1999/xlink" viewBox="0 0 500 500"><defs><style>.cls-1{fill:none;}.cls-2{clip-path:url(#clip-path);}.cls-3,.cls-6,.cls-7{fill:#fff;}.cls-4{fill:gray;}.cls-5{fill:url(#linear-gradient);}.cls-6,.cls-8{stroke:#000;}.cls-6,.cls-7,.cls-8{stroke-miterlimit:10;stroke-width:5px;}.cls-7{stroke:red;}.cls-8{fill:#d7c0b3;}</style><clipPath id="clip-path"><rect class="cls-1" width="500" height="500" rx="100"/></clipPath><linearGradient id="linear-gradient" x1="100" y1="150" x2="400" y2="150" gradientTransform="translate(0 0)" gradientUnits="userSpaceOnUse"><stop offset="0" stop-color="#3ddeed"/><stop offset="0.03" stop-color="#3ddeed" stop-opacity="0.92"/><stop offset="0.13" stop-color="#3ddeed" stop-opacity="0.71"/><stop offset="0.24" stop-color="#3ddeed" stop-opacity="0.52"/><stop offset="0.35" stop-color="#3ddeed" stop-opacity="0.36"/><stop offset="0.46" stop-color="#3ddeed" stop-opacity="0.23"/><stop offset="0.58" stop-color="#3ddeed" stop-opacity="0.13"/><stop offset="0.7" stop-color="#3ddeed" stop-opacity="0.06"/><stop offset="0.83" stop-color="#3ddeed" stop-opacity="0.01"/><stop offset="1" stop-color="#3ddeed" stop-opacity="0"/></linearGradient></defs><title>bread_truck_rounded</title><g class="cls-2"><rect class="cls-3" width="500" height="500"/><rect class="cls-4" y="380" width="500" height="120"/><rect class="cls-5" x="100" y="-100" width="300" height="500" transform="translate(400 -100) rotate(90)"/><rect class="cls-6" x="150" y="110" width="300" height="200"/><circle class="cls-6" cx="360" cy="360" r="30"/><path class="cls-6" d="M120,135V285a25,25,0,0,0-25,25H50V225c0-49.71,22.39-90,50-90Z"/><circle class="cls-6" cx="140" cy="360" r="30"/><line class="cls-7" x1="150" y1="265" x2="185" y2="230"/><line class="cls-7" x1="150" y1="300" x2="220" y2="230"/><line class="cls-7" x1="175" y1="310" x2="255" y2="230"/><line class="cls-7" x1="210" y1="310" x2="290" y2="230"/><line class="cls-7" x1="245" y1="310" x2="325" y2="230"/><line class="cls-7" x1="280" y1="310" x2="360" y2="230"/><line class="cls-7" x1="315" y1="310" x2="395" y2="230"/><line class="cls-7" x1="350" y1="310" x2="430" y2="230"/><line class="cls-7" x1="385" y1="310" x2="450" y2="245"/><line class="cls-7" x1="420" y1="310" x2="450" y2="280"/><line class="cls-7" x1="150" y1="230" x2="450" y2="230"/><line class="cls-6" x1="150" y1="310" x2="450" y2="310"/><line class="cls-6" x1="150" y1="310" x2="150" y2="110"/><line class="cls-6" x1="450" y1="310" x2="450" y2="110"/><path class="cls-8" d="M360,178c0,4.27-1.79,8.33-5,12V290H245V190c-3.21-3.67-5-7.73-5-12,0-16.57,26.86-30,60-30S360,161.43,360,178Z"/></g></svg>